# xmcd
#
# Track frame offsets:
#	150
#	10506
#	21241
#	31343
#	42572
#	55162
#	65236
#	74248
#	84834
#	95036
#	104351
#	116489
#	126720
#	139321
#	150472
#	160634
#	170395
#	178820
#	190237
#	200918
#
# Disc length: 2828 seconds
#
# Revision: 0
# Processed by: cddbd v1.5.2PL0 Copyright (c) Steve Scherf et al.
# Submitted via: FairStars CD Ripper 1.80
#
DISCID=260b0a14
DTITLE=Sam Cooke - The Songwriter cd2 ( Performed by others)
DYEAR=2015
DGENRE=Soul
TTITLE0=Soothe Me - The Sims Twins
TTITLE1=Rome (Wasn't Built In A Day) - Johnnie Taylor
TTITLE2=I'm Alright - Little Anthony and The Imperials
TTITLE3=Sho' Miss You Baby - Johnnie Morisette
TTITLE4=Wade In The Water - The Soul Stirrers
TTITLE5=Dance What You Wanna - Clifton White
TTITLE6=Don't Fight It, Feel It - The Sims Twins
TTITLE7=Never (Coming Running Back To You) - Johnnie Morisette
TTITLE8=You're Workin' Out Your Bag - L.C. Cooke
TTITLE9=I'll Keep Thinking Of You - Kylo Turner
TTITLE10=Stand By Me Father - The Soul Stirrers
TTITLE11=Nobody Loves Me Like You - The Flamingos
TTITLE12=Meet Me At The Twistin' Place - Johnnie Morisette
TTITLE13=The Smile - Sims Twins
TTITLE14=Somewhere There's A Girl - The Valentinos
TTITLE15=You're Pickin' In The Right Cotton Patch - The Sims Twins
TTITLE16=Wildest Girl In Town - Johnnie Morisette
TTITLE17=Hold Me - Jackie Ross
TTITLE18=Jesus Be A Fence Around Me - The Soul Stirrers
TTITLE19=In My Heart - Johnnie Morisette
EXTD=
EXTT0=
EXTT1=
EXTT2=
EXTT3=
EXTT4=
EXTT5=
EXTT6=
EXTT7=
EXTT8=
EXTT9=
EXTT10=
EXTT11=
EXTT12=
EXTT13=
EXTT14=
EXTT15=
EXTT16=
EXTT17=
EXTT18=
EXTT19=
PLAYORDER=
